<svg width="366" height="181" viewBox="0 0 366 181" fill="none" xmlns="http://www.w3.org/2000/svg">
<g filter="url(#filter0_d_1262_14866)">
<path fill-rule="evenodd" clip-rule="evenodd" d="M4 20C4 11.1634 11.1634 4 20 4H346C354.837 4 362 11.1634 362 20V120C362 128.837 354.837 136 346 136H307C307 145.941 298.941 154 289 154C279.059 154 271 145.941 271 136H20C11.1635 136 4 128.837 4 120V20ZM272 177C275.866 177 279 173.866 279 170C279 166.134 275.866 163 272 163C268.134 163 265 166.134 265 170C265 173.866 268.134 177 272 177Z" fill="white"/>
</g>
<defs>
<filter id="filter0_d_1262_14866" x="0" y="0" width="366" height="181" filterUnits="userSpaceOnUse" color-interpolation-filters="sRGB">
<feFlood flood-opacity="0" result="BackgroundImageFix"/>
<feColorMatrix in="SourceAlpha" type="matrix" values="0 0 0 0 0 0 0 0 0 0 0 0 0 0 0 0 0 0 127 0" result="hardAlpha"/>
<feOffset/>
<feGaussianBlur stdDeviation="2"/>
<feComposite in2="hardAlpha" operator="out"/>
<feColorMatrix type="matrix" values="0 0 0 0 0 0 0 0 0 0 0 0 0 0 0 0 0 0 0.25 0"/>
<feBlend mode="normal" in2="BackgroundImageFix" result="effect1_dropShadow_1262_14866"/>
<feBlend mode="normal" in="SourceGraphic" in2="effect1_dropShadow_1262_14866" result="shape"/>
</filter>
</defs>
</svg>
