<svg width="25" height="24" viewBox="0 0 25 24" fill="none" xmlns="http://www.w3.org/2000/svg">
<path d="M19.8207 4.78275C19.8207 3.45165 18.7341 2.37231 17.3941 2.37231C16.0542 2.37231 14.9676 3.45165 14.9676 4.78275C14.9676 5.44963 15.2399 6.05224 15.6794 6.48612L6.97624 15.1315C6.53677 14.695 5.93013 14.4245 5.26149 14.4245C3.92151 14.4245 2.83496 15.5038 2.83496 16.8349C2.83496 18.166 3.92151 19.2453 5.26149 19.2453C5.26149 20.5764 6.34804 21.6558 7.68802 21.6558C9.028 21.6558 10.1145 20.5764 10.1145 19.2453C10.1145 18.5785 9.84224 17.9758 9.40277 17.542L18.1032 8.89923C18.5427 9.33579 19.1493 9.60629 19.818 9.60629C21.1579 9.60629 22.2445 8.52695 22.2445 7.19586C22.2445 5.86476 21.1579 4.78543 19.818 4.78543L19.8207 4.78275Z" fill="white"/>
<path d="M19.8198 4.60591C19.7875 4.63002 19.8037 4.6809 19.9007 4.67555L19.9735 4.58984L19.8198 4.60591Z" fill="#323031"/>
<path d="M20.4264 4.84967C20.5397 4.83092 20.6879 4.80682 20.6448 4.70504C20.51 4.75057 20.4911 4.71576 20.3536 4.78271C20.262 4.772 20.1972 4.72915 20.2188 4.69701C20.1838 4.71576 20.0732 4.65148 20.0166 4.70772C20.1325 4.78807 20.2781 4.80682 20.4453 4.7961C20.4749 4.82289 20.4345 4.83896 20.4237 4.85235L20.4264 4.84967Z" fill="#323031"/>
<path d="M18.1162 8.73853L18.1705 8.80341C18.157 8.78178 18.1379 8.76015 18.1162 8.73853Z" fill="#323031"/>
<path d="M14.0983 12.6332C14.1254 12.6007 14.1336 12.5818 14.1282 12.5764C14.1037 12.6089 14.0847 12.6359 14.0983 12.6332Z" fill="#323031"/>
<path d="M13.3623 13.2248C13.3786 13.2113 13.3922 13.2005 13.4058 13.1897C13.384 13.1978 13.3677 13.2113 13.3623 13.2248Z" fill="#323031"/>
<path d="M18.1168 8.7385L18.1087 8.72778C18.0655 8.73314 18.0224 8.78403 17.9766 8.81081C17.9766 8.85634 18.0467 8.75992 18.1087 8.72778L18.1168 8.73582V8.7385Z" fill="#323031"/>
<path d="M21.644 5.27859C21.6168 5.25967 21.5897 5.24615 21.5625 5.23804L21.6304 5.2867C21.6304 5.2867 21.6386 5.2813 21.644 5.2813V5.27859Z" fill="#323031"/>
<path d="M20.3135 9.35217L20.3542 9.34135C20.3542 9.34135 20.3705 9.31432 20.3787 9.2981L20.3135 9.35217Z" fill="#323031"/>
<path d="M21.6721 8.39575C21.6503 8.42789 21.7047 8.47878 21.721 8.51092C21.7101 8.4761 21.7128 8.44396 21.7264 8.40914C21.7155 8.40111 21.6965 8.39575 21.6721 8.39575Z" fill="#323031"/>
<path d="M21.7001 5.80077L21.6621 5.76562C21.6621 5.76562 21.6893 5.78996 21.7001 5.80077Z" fill="#323031"/>
<path d="M19.112 9.27705C19.112 9.27705 19.112 9.25543 19.1065 9.24731C19.1038 9.25543 19.1065 9.26624 19.112 9.27705Z" fill="#323031"/>
<path d="M19.1415 2.63477C19.1415 2.63477 19.1357 2.64369 19.1328 2.64667C19.1473 2.64667 19.1561 2.64667 19.1415 2.63477Z" fill="#323031"/>
<path d="M19.7989 4.78295L19.7935 4.75321C19.7799 4.75051 19.7636 4.7478 19.75 4.7478L19.7989 4.78295Z" fill="#323031"/>
<path d="M12.0771 14.3657C12.0771 14.3657 12.0799 14.3657 12.0826 14.3603C12.1098 14.3225 12.0907 14.3414 12.0771 14.3657Z" fill="#323031"/>
<path d="M3.63508 18.1767C3.66204 18.2543 3.60003 18.2249 3.5488 18.1954C3.49758 18.1659 3.44905 18.1418 3.49488 18.265C3.50297 18.2329 3.73214 18.3507 3.63238 18.1767H3.63508Z" fill="#323031"/>
<path d="M21.6748 5.32104C21.6965 5.33727 21.7156 5.3616 21.7346 5.38053C21.7101 5.35079 21.6938 5.33186 21.6748 5.32104Z" fill="#323031"/>
<path d="M3.49805 18.2649C3.49805 18.2649 3.5062 18.2811 3.50891 18.2892C3.50348 18.2784 3.50076 18.273 3.49805 18.2649Z" fill="#323031"/>
<path d="M9.18945 17.2986C9.21391 17.2932 9.24379 17.2769 9.27368 17.2634C9.26281 17.2634 9.24379 17.2688 9.18945 17.2986Z" fill="#323031"/>
<path d="M11.4709 15.1851L11.4111 15.231C11.4356 15.2148 11.4546 15.2013 11.4709 15.1851Z" fill="#323031"/>
<path d="M9.83963 18.7471C9.83963 18.7846 9.83691 18.798 9.85322 18.8435C9.85593 18.8381 9.85865 18.8328 9.85865 18.8274C9.84506 18.8113 9.83691 18.7899 9.83691 18.7471H9.83963Z" fill="#323031"/>
<path d="M9.69336 20.1594C9.69336 20.1594 9.70966 20.1485 9.72053 20.1404C9.72596 20.1269 9.7314 20.1107 9.73683 20.0972L9.69608 20.1594H9.69336Z" fill="#323031"/>
<path d="M14.7344 4.1105C14.7643 4.07836 14.7941 4.05961 14.8213 4.0489C14.7615 4.06229 14.8132 3.79982 14.7344 4.1105Z" fill="#323031"/>
<path d="M21.6155 5.31047C21.6373 5.30235 21.6536 5.30776 21.6753 5.32128C21.659 5.30776 21.6454 5.29695 21.6291 5.28613C21.6183 5.29154 21.6101 5.29695 21.6128 5.31047H21.6155Z" fill="#323031"/>
<path d="M10.4375 18.6855C10.4538 18.782 10.4647 18.8784 10.4701 18.9748C10.4701 18.8945 10.4592 18.7873 10.4375 18.6855Z" fill="#323031"/>
<path d="M9.12988 12.5582L9.1652 12.5095C9.1489 12.523 9.13532 12.5393 9.12988 12.5582Z" fill="#323031"/>
<path d="M10.4303 19.8345C10.3922 19.88 10.3623 19.9282 10.3379 19.9791C10.3406 19.9925 10.3406 20.0059 10.3488 20.0166L10.4303 19.8345Z" fill="#323031"/>
<path d="M15.7758 2.44459C15.5466 2.61064 15.7273 2.59993 15.7165 2.68028C15.49 2.90793 15.5547 2.72313 15.4361 2.76063C15.304 2.92668 15.2743 3.10344 15.1854 3.22129C15.1665 3.22129 15.1422 3.24003 15.1476 3.20254C15.118 3.31235 15.0317 3.44358 14.9643 3.59089C14.8915 3.73551 14.843 3.89621 14.8537 4.02476C14.8403 4.04083 14.8295 4.04619 14.8214 4.04887C14.878 4.02476 14.9292 4.03548 14.9616 4.05155C14.9346 4.16135 14.9697 4.26581 14.8996 4.29527C14.9157 4.22831 14.8942 4.2176 14.8807 4.1801C14.8807 4.22028 14.8753 4.26045 14.8807 4.3033C14.8268 4.34883 14.8241 4.30598 14.8295 4.24974C14.8376 4.19617 14.8537 4.12654 14.8214 4.1185C14.7809 4.36222 14.843 4.64076 14.816 4.81753C14.7162 4.8577 14.8052 4.39168 14.7108 4.63273C14.7243 4.53631 14.7486 4.44257 14.7782 4.35151C14.6003 4.5497 14.816 4.17742 14.6327 4.35687C14.5599 4.74789 14.63 4.79878 14.6461 5.18713C14.7108 5.2648 14.7162 5.14963 14.7809 5.22462C14.8726 5.47638 14.8564 5.58619 14.8349 5.69064C14.816 5.78974 14.7944 5.88615 14.9427 6.04149C15.0479 6.10845 15.1584 6.08434 15.2662 6.34414L15.126 6.32539C15.1476 6.35485 15.1773 6.3977 15.1827 6.40306C15.1881 6.40841 15.1961 6.40841 15.2042 6.41109C15.2204 6.41645 15.2393 6.41645 15.2582 6.41913C15.2959 6.42448 15.339 6.4352 15.366 6.47269C15.3687 6.48073 15.339 6.49144 15.3229 6.50215C15.3094 6.49144 15.3175 6.48073 15.3094 6.47001C15.277 6.45127 15.2609 6.43252 15.2582 6.44323C15.2474 6.45662 15.2447 6.46466 15.2501 6.47001C15.242 6.48608 15.3417 6.49947 15.2986 6.545C15.2636 6.53697 15.2312 6.52626 15.1988 6.51554L15.18 6.545C15.1719 6.5584 15.126 6.60928 15.1018 6.63874C15.0425 6.71106 14.9832 6.78337 14.9211 6.85836C14.7998 7.00834 14.6758 7.161 14.541 7.30563C14.5383 7.27081 14.5653 7.20386 14.479 7.24939C14.1608 7.63238 13.7187 7.98859 13.3412 8.28587L13.2684 8.47067C13.2387 8.50013 13.1875 8.50013 13.2091 8.45728C13.0554 8.56709 13.2387 8.50013 13.1956 8.58316C13.1255 8.66083 13.0635 8.65012 13.0959 8.58584C12.9098 8.86438 12.5324 9.34914 12.2277 9.53394L12.26 9.46966C12.0471 9.63839 12.1576 9.79909 11.9284 9.92229L11.9527 9.87944C11.5132 10.2678 11.1034 10.7767 10.7044 11.007C10.7259 11.1463 10.2568 11.3793 10.3431 11.5185C10.0492 11.698 10.0977 11.6123 9.72567 11.9069C9.63131 11.9899 9.66366 12.1077 9.56391 12.2309L9.50189 12.1747L9.41292 12.3836L9.26194 12.3943L9.17297 12.5122C9.2188 12.4747 9.2862 12.4506 9.29699 12.4747C9.16218 12.6621 8.86291 12.8255 8.82786 12.7987L8.49623 13.2273C8.48006 13.1951 8.53667 13.1228 8.57172 13.0585C8.42883 13.321 8.47197 13.0344 8.33986 13.2755C8.3776 13.2648 8.36143 13.3237 8.36951 13.3397C8.2401 13.396 8.0271 13.6076 7.8869 13.779L7.87612 13.7093C7.72783 13.8459 7.58494 13.9986 7.43665 14.1566C7.36385 14.237 7.28836 14.3173 7.21287 14.3977L7.01066 14.6066C7.01066 14.6066 7.02144 14.6066 7.02683 14.6066C7.04032 14.6012 7.0538 14.5958 7.06458 14.5958C7.08615 14.5932 7.10233 14.5985 7.11041 14.6119C7.12929 14.6333 7.10772 14.6949 7.09424 14.7137C7.06997 14.6976 7.0484 14.6762 7.02953 14.6548C7.03223 14.7271 7.08885 14.6414 7.06728 14.7565C6.99987 14.8101 7.00527 14.6762 7.00527 14.6387C6.99987 14.6601 6.98909 14.6842 6.97561 14.711C6.97022 14.6789 6.97561 14.6521 6.97291 14.6119C6.97291 14.628 6.97022 14.6387 6.96482 14.6333C6.95674 14.6173 6.95404 14.5905 6.95134 14.5798C6.95134 14.5744 6.95134 14.5717 6.94595 14.5744C6.93786 14.5744 6.94595 14.5905 6.90281 14.5825L6.9082 14.553C6.69521 14.403 6.51726 14.3227 6.3528 14.2611C6.18564 14.2021 6.02657 14.1566 5.81896 14.1191C5.79739 14.1914 5.63832 14.1459 5.5116 14.1968C5.22042 14.1459 4.87262 14.1084 4.51673 14.2155C4.28216 14.328 4.4655 14.2986 4.37113 14.3762C4.328 14.3093 3.99907 14.4646 4.15005 14.3441C3.95054 14.4405 3.83191 14.5182 3.71058 14.6119C3.59195 14.711 3.46253 14.8208 3.29807 15.0404C3.35738 15.0163 3.41131 14.9762 3.40591 15.019C3.3493 15.0967 3.23606 15.161 3.21988 15.1315L3.23067 15.1074C3.07159 15.3699 2.85051 15.635 2.69413 15.9457C2.53506 16.251 2.45687 16.5938 2.52428 16.8402L2.51888 16.8134C2.54584 16.9849 2.58089 17.1509 2.63751 17.3116C2.66448 17.5419 2.56202 17.183 2.54854 17.3625C2.66448 17.6223 2.72649 17.8258 2.81276 18.016C2.89095 18.2061 2.99071 18.3802 3.15787 18.5356C3.19022 18.7338 3.4167 18.9775 3.70519 19.1516C3.99367 19.331 4.3253 19.4381 4.54638 19.5613L4.53021 19.5078C4.66232 19.4917 4.67041 19.5774 4.76207 19.5988C4.75399 19.564 4.63536 19.5319 4.71624 19.5212L4.88879 19.5399H4.94002C4.94002 19.5399 4.98585 19.5292 4.98316 19.5506V19.6042V19.631C4.98046 19.6256 4.98585 19.6658 4.99125 19.6979C4.99934 19.7649 5.00742 19.8318 5.0236 19.8961C5.04787 20.03 5.08561 20.1586 5.12875 20.2898C5.22042 20.5469 5.34444 20.7987 5.50891 21.0237C5.67337 21.2486 5.87289 21.4495 6.09936 21.6156C6.27191 21.7281 6.3501 21.7066 6.43638 21.6906C6.52266 21.6745 6.60084 21.6852 6.81384 21.8191L6.64937 21.8539C7.0484 21.953 7.45283 22.0173 7.85994 21.9959C8.26436 21.9771 8.67418 21.862 8.99232 21.6397C8.95997 21.6772 8.97075 21.7013 8.90335 21.7361C8.99502 21.7334 9.12983 21.6531 9.23498 21.5727C9.33743 21.4843 9.40753 21.3933 9.39405 21.3718C9.49111 21.3022 9.44528 21.3906 9.52077 21.3638C9.67984 21.2808 9.76072 21.0156 9.86318 20.9889C9.87935 20.9835 9.85239 21.0397 9.83352 21.0638C9.86048 21.0156 9.93328 20.9112 9.99259 20.8308C10.0465 20.7478 10.0735 20.6782 10.0169 20.7023C10.2083 20.4719 10.2433 20.1961 10.3458 19.9899C10.3107 19.8292 10.486 19.5051 10.362 19.4462C10.4213 19.4622 10.459 19.3364 10.4563 19.181C10.4563 19.0284 10.4132 18.8489 10.3674 18.7659C10.4159 18.8195 10.3727 18.6025 10.4375 18.6614C10.3916 18.4499 10.2973 18.2758 10.2514 18.332C10.2541 18.1258 10.1355 17.9571 10.0249 17.8232C9.99798 17.791 9.96833 17.7589 9.94406 17.7267L9.90632 17.6812C9.89284 17.6651 9.88205 17.6491 9.88475 17.6491C9.87396 17.6303 9.87935 17.6062 9.92519 17.5901C9.90901 17.5821 9.89283 17.5741 9.87935 17.5687C9.87127 17.55 9.88744 17.5232 9.90092 17.491L9.90632 17.4777L9.93328 17.4455L9.9899 17.3786L10.1031 17.2446C10.2541 17.0679 10.3997 16.8992 10.548 16.7331C10.6208 16.8322 10.1678 17.1268 10.273 17.2018C10.5723 16.8349 10.6909 16.5697 11.0414 16.2617C11.1385 16.1894 11.0306 16.3474 11.0144 16.3903C11.3137 16.0234 11.6669 15.7582 11.9176 15.4154C11.9257 15.4234 11.9015 15.4636 11.8772 15.5011C11.9338 15.4395 12.0255 15.3779 11.9796 15.3458L11.9338 15.4127C11.7828 15.4502 12.0471 15.0645 12.0282 15.0244C12.0417 15.2333 12.349 14.7619 12.3328 15.0592C12.3652 15.0137 12.3949 14.9467 12.3598 14.9306C12.4245 14.8824 12.4569 14.8797 12.4299 14.9654C12.6186 14.7351 12.5027 14.7699 12.6941 14.5798C12.713 14.5985 12.6806 14.6441 12.6833 14.6869C12.7427 14.5557 12.802 14.4218 12.9799 14.2798C12.9799 14.3012 13.015 14.2959 12.9664 14.3441C13.2361 14.0656 13.3385 13.779 13.6755 13.5165C13.6674 13.6879 13.8049 13.4415 13.8939 13.4951L14.0341 13.313L13.9344 13.3424C14.0772 13.2032 14.1527 13.0264 14.2983 12.9273L14.2228 13.0612L14.4763 12.7827L14.2983 12.9059C14.4062 12.7264 14.1932 12.8309 14.4035 12.6621C14.3711 12.7077 14.5464 12.5229 14.6623 12.4907C14.7108 12.3997 14.7594 12.3033 14.8807 12.2176C14.9319 12.2122 14.9373 12.3167 14.9697 12.314C14.9805 12.1854 15.2878 11.9658 15.3121 11.8158C15.2986 11.8587 15.3337 11.8988 15.3498 11.8962L15.3606 11.789C15.4415 11.7381 15.4604 11.7355 15.4792 11.7783C15.6868 11.5908 15.3256 11.7515 15.6006 11.556C15.5871 11.5775 15.6006 11.5775 15.5709 11.623C15.827 11.4087 15.9969 11.1382 16.2369 10.9454C16.3717 10.9534 16.0643 11.1516 16.1991 11.1382C16.4984 10.8141 16.7626 10.4097 17.0808 10.1232L17.016 10.1714C16.9567 10.0294 17.2911 9.99728 17.3962 9.79641C17.3665 9.84194 17.4043 9.90086 17.4016 9.87944C17.5148 9.7857 17.6146 9.67321 17.7197 9.54198C17.7737 9.47502 17.8276 9.40538 17.8896 9.33039C17.9246 9.28754 17.9435 9.26076 17.9651 9.2313C17.9894 9.19916 18.0136 9.16702 18.0379 9.13488L18.0244 9.20184C18.0568 9.18845 18.0918 9.14827 18.1269 9.13756C18.1565 9.17238 18.1916 9.20184 18.2239 9.2313C18.2644 9.26612 18.3048 9.29825 18.3372 9.32772C18.4073 9.33307 18.4989 9.39467 18.4693 9.31432C18.6688 9.56608 18.9734 9.65982 19.2538 9.6866C19.5396 9.71874 19.8012 9.69196 20.0789 9.75624C20.0142 9.75891 19.9252 9.79641 19.9764 9.79373C20.0546 9.7857 20.1328 9.77231 20.2083 9.75356C20.2838 9.73749 20.362 9.72142 20.4348 9.69464C20.3862 9.64107 20.3673 9.67857 20.2649 9.64107C20.3161 9.6009 20.4294 9.5393 20.5345 9.51252C20.3539 9.59822 20.5642 9.61429 20.6612 9.61161C20.6424 9.59822 20.6612 9.56876 20.6504 9.55269C20.912 9.57144 20.6451 9.43485 20.9605 9.36789V9.40539C21.0603 9.33843 21.1304 9.24201 21.2382 9.18041C21.3245 9.20987 21.1546 9.27951 21.1762 9.33039C21.3353 9.22862 21.3838 9.01704 21.5483 8.96079C21.5051 9.02507 21.4269 9.10274 21.3757 9.16166C21.5698 9.11613 21.5725 9.07864 21.6804 8.99561L21.6696 9.00365C21.7478 8.93401 21.8367 8.86973 21.9068 8.78939L21.8394 8.84027C21.8367 8.68761 21.9042 8.59655 21.9635 8.48674C22.0309 8.38229 22.0983 8.26177 22.101 8.10107C22.0875 8.41443 22.1441 8.17339 22.2115 8.22427C22.2654 8.15999 22.3301 8.05019 22.3382 8.09036C22.3355 8.00733 22.3679 7.95377 22.3922 7.88413C22.4164 7.81718 22.4488 7.73951 22.4137 7.62702C22.4407 7.62166 22.4407 7.469 22.5 7.50918C22.5 7.30831 22.4515 7.55203 22.4164 7.5306C22.3922 7.37794 22.4299 7.20653 22.438 7.01102C22.4515 6.81819 22.4245 6.59857 22.3059 6.40841C22.2223 6.23968 22.1468 6.15398 22.0686 6.07899C21.9958 6.00132 21.9122 5.93436 21.8071 5.81384C21.7747 5.70135 21.9419 5.82991 21.9365 5.83527C21.8691 5.66386 21.772 5.55673 21.6318 5.45228C21.6723 5.46299 21.6642 5.42281 21.6453 5.36389C21.5348 5.27551 21.5132 5.36657 21.3973 5.22462C21.4404 5.21927 21.5024 5.20855 21.5725 5.23534C21.4296 5.13892 21.2652 5.08268 21.1088 5.0184C21.0926 4.9568 21.2328 5.01304 21.3029 5.0184C21.125 4.92466 20.8365 4.80681 20.7529 4.86038C20.7879 4.88181 20.823 4.90323 20.8554 4.93001C20.7933 4.90323 20.8473 4.8577 20.9012 4.86841C21.0791 4.88716 21.1034 4.99965 21.0953 5.02643C21.0576 5.01036 21.0225 4.99429 20.9821 4.98358C21.0036 5.07732 21.1007 5.13088 21.2247 5.18177C21.2867 5.21123 21.3514 5.24069 21.4135 5.27015C21.4728 5.30497 21.5294 5.34514 21.5725 5.38532L21.4242 5.40139C21.5024 5.43085 21.586 5.46299 21.6615 5.50316C21.675 5.56208 21.6507 5.62636 21.5617 5.55405C21.6291 5.70939 21.6939 5.6344 21.7289 5.78438C21.7289 5.80313 21.7208 5.80045 21.71 5.79241C21.7505 5.82723 21.7936 5.86205 21.8287 5.90222C21.7909 5.88883 21.7774 5.9665 21.737 5.87812C21.8314 6.14059 22.0363 6.23433 21.9931 6.36824L21.9796 6.34949C22.0659 6.52358 22.0848 6.52894 22.1091 6.51822C22.136 6.50751 22.1657 6.48073 22.2493 6.62C22.2034 6.70302 22.1441 6.78069 22.0875 6.85568L22.1738 6.88247C22.1792 6.92264 22.1792 7.00299 22.1441 6.99227C22.2088 7.13958 22.1792 6.96281 22.2358 7.04852C22.2088 7.15029 22.2115 7.2842 22.2061 7.40205C22.1953 7.51721 22.1711 7.61363 22.1064 7.62434C22.1576 7.70737 22.1819 7.44758 22.1926 7.66452C22.0417 7.6913 22.163 7.91092 22.0309 8.05822C21.9823 7.98055 22.074 7.84128 21.9527 7.98055C22.0363 8.12786 21.7909 8.27784 21.7343 8.40639C21.8179 8.46799 21.5887 8.69565 21.4269 8.8858C21.4188 8.86438 21.3299 8.94472 21.2005 9.01704C21.1384 9.05721 21.0683 9.09738 20.9982 9.12685C20.9308 9.16166 20.8634 9.18845 20.8068 9.20184V9.18309C20.8122 9.2929 20.583 9.37592 20.4186 9.43217C20.4105 9.37325 20.4348 9.34646 20.5129 9.2929C20.4644 9.31165 20.4105 9.31968 20.362 9.33575C20.3323 9.37592 20.2892 9.40806 20.1867 9.43217L20.2137 9.3545C20.1112 9.37592 20.0088 9.40806 19.8955 9.42413C19.7823 9.44824 19.6556 9.44824 19.5235 9.40539C19.4938 9.46966 19.7338 9.625 19.4129 9.62768C19.4075 9.58751 19.4075 9.52591 19.4884 9.52323C19.4614 9.52591 19.3913 9.5393 19.3428 9.51252L19.4722 9.47234C19.3509 9.42145 19.3967 9.51519 19.2943 9.48573C19.3078 9.43485 19.2296 9.43217 19.2538 9.39467C19.2808 9.39467 19.3347 9.43752 19.3779 9.42413C19.2673 9.39199 19.1433 9.32504 19.1163 9.27147C19.1163 9.30361 19.0948 9.34111 19.0139 9.317C18.8144 9.23933 18.9707 9.2313 18.871 9.15631C18.809 9.16702 18.7119 9.0706 18.6688 9.13488C18.6149 9.10274 18.6256 9.06525 18.6176 9.03311C18.5906 9.02775 18.5501 9.00365 18.507 8.97686C18.4423 8.93133 18.3722 8.87777 18.3156 8.83224C18.197 8.73582 18.1269 8.69029 18.1862 8.80546L18.2131 8.83759C18.2131 8.83759 18.2023 8.82956 18.1943 8.8242C18.1673 8.80813 18.143 8.78939 18.1161 8.77064C18.0406 8.83759 17.9651 8.93133 17.8869 9.00097L17.7656 9.11078L17.6577 9.20184C17.5148 9.31968 17.3719 9.43752 17.256 9.57411L17.2371 9.55537C17.0969 9.73749 16.8893 9.92764 16.8138 10.0803C16.7653 10.1285 16.6655 10.158 16.6655 10.1151C16.555 10.2517 16.5631 10.2865 16.3528 10.4338C16.4445 10.2785 16.28 10.4472 16.4552 10.2839C16.2773 10.4285 16.2126 10.4338 16.0913 10.6561C16.1021 10.549 15.9106 10.7151 15.8459 10.8061L15.9942 10.7284C15.916 10.8222 15.8351 10.8918 15.7542 10.9641L15.7327 10.8597C15.3256 11.1114 15.2689 11.5801 14.8888 11.7007C14.8456 11.8319 15.0991 11.5533 15.0721 11.6819C14.9131 11.8239 14.6623 11.8908 14.6165 11.9363C14.3738 12.1077 14.5167 12.2202 14.2741 12.4131C14.3253 12.4077 14.4116 12.4425 14.2687 12.6247C14.1096 12.7666 13.9883 12.7157 14.0638 12.6032C14.0988 12.5657 14.1231 12.555 14.1285 12.5631C14.1689 12.5068 14.2228 12.4318 14.1393 12.4693V12.5122C14.0449 12.5631 13.8373 12.7746 13.8508 12.6889C13.7564 12.8228 13.84 12.7746 13.9344 12.7023C13.7079 12.863 13.6297 13.0023 13.4059 13.1791C13.449 13.1603 13.5057 13.1576 13.4733 13.1871C13.1525 13.4522 13.387 13.3585 13.1983 13.5647C13.05 13.6424 13.1552 13.4415 12.9853 13.6692C12.8397 13.7683 12.899 13.6344 12.9287 13.5674C12.7885 13.7924 12.5593 13.8781 12.4461 13.9745L12.5243 13.862C12.4784 13.929 12.4299 13.9772 12.3814 14.0227L12.4811 14.012C12.4164 14.0602 12.3679 14.1084 12.3517 14.087C12.3221 14.1754 12.4703 14.1164 12.3976 14.2718C12.3005 14.3227 12.1926 14.5235 12.1064 14.4914C12.3625 14.2771 12.0201 14.4566 12.2115 14.2477C12.1792 14.2932 12.1333 14.3387 12.0686 14.3869C12.0524 14.3869 12.0632 14.3655 12.0767 14.3468C11.7963 14.5182 12.0417 14.5182 11.8044 14.7485C11.8017 14.6842 11.6858 14.7378 11.6534 14.7833C11.7478 14.6896 11.7559 14.794 11.6939 14.9065C11.5159 15.0297 11.551 15.0886 11.4674 15.1636L11.5698 15.086C11.5725 15.1502 11.4943 15.2199 11.4 15.335C11.3649 15.319 11.4782 15.2226 11.4269 15.2467C11.3703 15.4208 11.1034 15.4475 10.9794 15.6484C10.8823 15.6993 10.9093 15.5922 10.8257 15.643C10.6882 15.868 10.583 15.793 10.4267 16.018C10.5264 16.0073 10.5264 15.9885 10.4348 16.1653L10.7179 15.8198L10.583 16.085C10.6774 15.9912 10.7556 15.8573 10.8203 15.8091C10.761 15.9403 10.761 15.9216 10.8419 15.9136C10.6451 15.9752 10.6235 16.2082 10.4267 16.3126L10.3188 16.1974C10.0438 16.3715 9.97642 16.6528 9.65288 16.9152L9.76612 16.8402C9.76881 16.8831 9.72567 16.9286 9.67175 16.9795C9.64479 17.0036 9.61513 17.0304 9.58817 17.0572L9.54773 17.0973C9.53155 17.1134 9.51268 17.1348 9.4992 17.1536C9.47224 17.1054 9.36439 17.183 9.26463 17.2393C9.29968 17.2446 9.11365 17.4027 9.04625 17.5178C9.11904 17.5768 9.18645 17.6223 9.24037 17.6276L9.3563 17.8606C9.39135 17.9062 9.42101 17.9437 9.44797 17.9812C9.46684 18.0053 9.48572 18.024 9.50459 18.0428C9.54234 18.0776 9.58278 18.1044 9.62052 18.1338C9.69602 18.1901 9.7742 18.249 9.82274 18.3936C9.73376 18.332 9.75264 18.4659 9.6367 18.3079C9.67714 18.3936 9.69602 18.4793 9.73376 18.4659C9.72298 18.5249 9.88475 18.7016 9.8497 18.8034C9.87935 18.8382 9.93867 18.8436 9.94945 18.9561C9.94137 18.9694 9.92249 18.9561 9.92249 18.9561C9.95215 18.9534 9.97372 19.1301 10.0249 19.0257C9.95215 19.1891 9.95754 19.4006 9.92249 19.6122C9.89553 19.8211 9.83082 20.0247 9.7095 20.1157C9.64479 20.322 9.50729 20.5469 9.38057 20.6996C9.37787 20.6809 9.36169 20.6809 9.39135 20.6567C9.17296 20.8201 9.39135 20.8924 9.10826 21.0585C8.92762 21.0879 9.21341 20.9219 9.11365 20.9567C9.04085 20.9005 8.97345 20.9621 8.89257 21.0371C8.80899 21.1094 8.70114 21.1978 8.58521 21.1924L8.62565 21.1629C8.46927 21.179 8.30211 21.3692 8.04058 21.4013C8.04058 21.4013 8.05137 21.3852 8.03789 21.3745C7.88151 21.5004 7.52832 21.5379 7.26679 21.5111C7.35846 21.4549 7.38812 21.4924 7.35037 21.4174C7.23713 21.4067 7.36655 21.5406 7.13468 21.5084C7.06728 21.4575 6.91899 21.3772 6.92708 21.2969C6.99178 21.321 7.05919 21.3397 7.12659 21.3531C7.0484 21.2406 6.87046 21.2781 6.7734 21.2165L6.80305 21.1844C6.65746 21.1254 6.57658 21.1121 6.4903 21.0879C6.40403 21.0692 6.31505 21.0344 6.18294 20.9192L6.18833 20.9674C5.96995 20.9112 6.10475 20.8201 5.91872 20.7291L5.96186 20.6166C5.8648 20.5416 5.61945 20.3193 5.5116 20.105C5.63562 20.1988 5.792 20.4103 5.9295 20.5041C5.84862 20.413 5.70842 20.1639 5.63562 20.1265C5.66798 20.1666 5.71651 20.2122 5.7246 20.263C5.58709 20.1693 5.44959 19.9925 5.39836 19.7408C5.45229 19.7408 5.46846 19.7006 5.47655 19.6363C5.47925 19.6042 5.47925 19.5694 5.47655 19.5265C5.46846 19.4569 5.46846 19.3846 5.46577 19.3096C5.46577 19.2319 5.46038 19.1516 5.46038 19.0739C5.46038 19.0551 5.46307 19.0284 5.45498 19.0177L5.39836 19.0123C5.36062 19.0069 5.32557 19.0043 5.29052 18.9989C5.15302 18.9802 5.02899 18.9587 4.9535 18.9025C4.74051 18.9159 4.5356 18.8409 4.34956 18.7391C4.15814 18.6347 3.98559 18.4927 3.81034 18.3347C3.82921 18.5677 3.70249 18.2436 3.60813 18.3749C3.51915 18.2918 3.4895 18.257 3.49219 18.241C3.44366 18.1231 3.40052 18.0106 3.37086 17.8928C3.37086 17.799 3.45984 17.9651 3.4841 17.9383C3.36817 17.7267 3.4895 17.8178 3.45984 17.6598C3.42209 17.7133 3.34121 17.6223 3.31964 17.4857C3.31964 17.5526 3.31425 17.625 3.31964 17.6919C3.2091 17.5526 3.21718 17.4643 3.23067 17.3866C3.24684 17.3036 3.25763 17.2339 3.19292 17.0732L3.26032 17.1697C3.22797 17.0893 3.2091 16.934 3.20101 16.776C3.19022 16.6179 3.19292 16.4599 3.14439 16.3608C3.17135 16.334 3.22527 16.3046 3.21718 16.3822C3.27111 16.1841 3.31964 15.9564 3.40861 15.7475C3.49489 15.5386 3.62969 15.3592 3.77798 15.2734L3.78337 15.3243C3.8346 15.2681 3.83191 15.1717 3.93975 15.1449C3.94514 15.161 3.93975 15.1958 3.96941 15.1744C3.98289 15.1556 4.01255 15.1128 4.05299 15.0645C4.09613 15.0217 4.15275 14.9788 4.20397 14.9628L4.15005 15.0485C4.33608 14.9601 4.4682 14.8851 4.59761 14.7994C4.66501 14.7592 4.73242 14.7244 4.80252 14.6842C4.87531 14.6548 4.9562 14.6253 5.04517 14.6092C5.05056 14.6682 5.13684 14.703 5.2366 14.7244C5.33905 14.7512 5.45498 14.7726 5.53317 14.794L5.52508 14.8101C5.75426 14.8476 5.94568 14.8851 6.1398 14.9387C6.34471 15.0083 6.46873 15.011 6.83002 15.3163C6.86776 15.3699 6.9109 15.4288 6.96752 15.4931C7.06997 15.4315 7.20478 15.3056 7.35307 15.169C7.45552 15.0726 7.56606 14.9681 7.682 14.861C7.87342 14.6789 8.07024 14.486 8.25358 14.3495C8.18348 14.3896 8.19696 14.2745 8.25358 14.2048C8.35603 14.1379 8.42883 13.9156 8.49354 14.004L8.46118 14.0334C8.60138 14.0441 8.75506 13.8513 8.89257 13.7201L8.81438 13.5969C9.31586 13.3906 9.69062 12.6193 10.0142 12.5577C10.0735 12.4479 10.1813 12.3434 10.2406 12.2336L10.2892 12.2925C10.5399 12.0703 10.6666 11.9604 10.947 11.6551L10.9255 11.7542C11.0953 11.5935 10.9794 11.3927 11.1277 11.2373L11.2544 11.2721C11.5429 10.9829 11.9042 10.7633 12.1172 10.4071C12.1252 10.4231 12.1387 10.4553 12.0956 10.5035C12.2331 10.3696 12.6753 10.0348 12.5162 9.97585C12.5917 10.0428 12.8208 9.6866 12.9449 9.5018L12.9745 9.57947C13.0392 9.38128 13.0231 9.35985 13.1875 9.15631C13.2387 9.11881 13.2684 9.16166 13.1956 9.20452C13.3682 9.08667 13.2576 9.04114 13.4625 8.89652L13.4302 8.99561C13.5839 8.85099 13.5542 8.84563 13.5973 8.72511C13.6701 8.60994 13.8939 8.45728 13.964 8.48406C13.9559 8.43586 13.9964 8.31533 14.0988 8.24034C14.1285 8.2457 14.1069 8.28855 14.0988 8.30998C14.3846 8.09839 14.4089 7.87878 14.6327 7.76093C14.6542 7.77433 14.6731 7.77165 14.6947 7.76361C14.4952 7.95913 14.3334 8.11446 14.3442 8.09572C14.3927 8.14392 14.5626 7.99394 14.5032 8.18678C14.5949 8.0234 14.7351 7.72344 14.9131 7.5922C14.9265 7.58953 14.9373 7.58685 14.9508 7.58953L14.94 7.61095C14.9805 7.57881 15.0074 7.544 15.0317 7.50382C15.0883 7.46365 15.126 7.43686 15.1746 7.39133C15.2339 7.41276 15.3795 7.23064 15.4631 7.15297C15.4038 7.10744 15.517 7.01102 15.3741 7.06459C15.3903 7.05655 15.366 7.08601 15.3148 7.14226C15.304 7.15565 15.2905 7.17172 15.2851 7.18243V7.17172C15.2339 7.22528 15.1665 7.29492 15.091 7.37259C15.126 7.2842 15.1692 7.19582 15.2878 7.1369C15.2932 7.06191 15.304 6.98156 15.3121 6.94139C15.4064 6.91996 15.4981 6.88782 15.6464 6.7914C15.7812 6.70838 15.916 6.61732 15.9807 6.59857C16.0131 6.5584 16.0562 6.51822 16.0805 6.47805C15.9726 6.37627 15.8594 6.26914 15.7596 6.16201L15.6841 6.08167C15.6707 6.06827 15.6626 6.05756 15.6464 6.03881L15.6275 6.01739C15.6033 5.98793 15.5763 5.95847 15.552 5.93168C15.455 5.8192 15.3687 5.71207 15.2716 5.65047C15.2204 5.57012 15.2716 5.53798 15.2824 5.49781C15.3121 5.54334 15.3337 5.59958 15.3633 5.61565C15.2528 5.46834 15.1988 5.12017 15.1018 5.09071C15.118 4.8577 15.2042 5.20588 15.1584 4.89788L15.1908 4.93805C15.2528 4.63541 15.215 4.4024 15.2339 4.13725C15.2528 3.88014 15.331 3.58285 15.6275 3.37127C15.5898 3.40073 15.5709 3.4168 15.552 3.41412C15.8217 3.12219 16.1317 2.8624 16.4984 2.68296C16.8651 2.51958 17.2991 2.44727 17.6712 2.57583C17.8815 2.63207 17.9112 2.58922 18.0595 2.57583L18.081 2.66956C18.1619 2.66956 18.2482 2.65885 18.3318 2.66689C18.4989 2.70438 18.6068 2.8249 18.7038 2.94543C18.8036 3.0713 18.898 3.18915 19.0813 3.30163L19.0867 3.22664C19.1891 3.33645 19.4021 3.59089 19.332 3.60428C19.3482 3.61231 19.4075 3.61767 19.4129 3.68195L19.3779 3.70605C19.4534 3.80247 19.5289 3.90424 19.5909 4.01405C19.6259 4.156 19.572 4.15868 19.5396 4.17207C19.4992 4.18814 19.4803 4.2176 19.51 4.40775C19.5585 4.54167 19.6664 4.82021 19.696 4.76396C19.696 4.70236 19.7149 4.60327 19.7553 4.59255L19.785 4.73986C19.9117 4.75861 20.0492 4.90055 20.1139 4.48275C20.0735 4.38901 20.0357 4.30062 19.9926 4.21224L20.0303 4.11047C20.0546 4.18814 20.0708 4.26581 20.0816 4.34615C20.122 4.19885 20.0411 4.12118 19.9872 4.03815C20.0115 4.00869 20.0276 3.96049 20.0169 3.90156C19.9441 3.82389 19.882 3.7489 19.8012 3.68462C19.8308 3.63374 19.9468 3.75962 19.8874 3.57482C19.7796 3.48108 19.8416 3.73283 19.7176 3.55875C19.7041 3.41412 19.7607 3.42483 19.6367 3.31502C19.6529 3.27753 19.6879 3.29628 19.7338 3.34449C19.6313 3.24003 19.4992 3.03916 19.3994 3.03113C19.3617 2.87043 19.0462 2.71242 19.1298 2.63475C19.0732 2.62939 18.8737 2.55172 18.7551 2.49548C18.8953 2.49816 18.7928 2.42852 18.6634 2.35621C18.534 2.28657 18.3776 2.21694 18.4342 2.1607C18.2239 2.20087 17.7791 2.01607 17.4528 2.09106C17.4717 2.08303 17.5067 2.06428 17.5337 2.06963C17.3558 2.04553 17.3018 2.01875 17.1832 2C17.167 2.10177 16.8947 2.15802 16.7707 2.25979C16.5361 2.21426 16.8678 2.10713 16.7842 2.02946C16.8111 2.10713 16.431 2.21158 16.528 2.26247C16.3501 2.26247 16.3825 2.27854 16.2692 2.23569C16.2989 2.3696 16.1317 2.31871 16.0508 2.46066C15.8136 2.53297 15.9241 2.38031 15.73 2.57315C15.6006 2.61868 15.7704 2.43656 15.7704 2.43656L15.7758 2.44459ZM14.5491 7.3217C14.5814 7.2842 14.6111 7.25474 14.6273 7.236C14.6111 7.25474 14.5895 7.27885 14.5491 7.3217ZM14.2148 7.65648C14.2579 7.61899 14.3091 7.5681 14.363 7.51453C14.3927 7.51989 14.4008 7.55203 14.363 7.58417C14.3684 7.55471 14.2795 7.62166 14.2148 7.65648ZM15.2959 7.3217C15.2501 7.3833 15.2231 7.38866 15.2042 7.38598C15.2285 7.3592 15.2555 7.32973 15.2905 7.28688C15.2905 7.2842 15.2905 7.27885 15.2905 7.27349C15.2959 7.28956 15.2986 7.30295 15.2959 7.3217Z" fill="#323031"/>
<path d="M15.3233 7.1557C15.3233 7.1557 15.3314 7.13948 15.3423 7.12866C15.326 7.13407 15.3124 7.14218 15.2988 7.14759C15.2988 7.1584 15.2988 7.17192 15.2988 7.18273C15.307 7.17192 15.3178 7.16381 15.326 7.15299L15.3233 7.1557Z" fill="#323031"/>
<path d="M18.1781 8.81355L18.1699 8.80273C18.1699 8.80273 18.1835 8.82436 18.1889 8.83518C18.1835 8.82436 18.1835 8.82166 18.1808 8.81355H18.1781Z" fill="#323031"/>
<path d="M9.47754 12.1589L9.49384 12.1724L9.51014 12.1318L9.47754 12.1589Z" fill="#323031"/>
<path d="M20.6484 9.61157C20.6484 9.61157 20.6675 9.61992 20.6892 9.61714C20.6865 9.61157 20.6675 9.61157 20.6484 9.61157Z" fill="#323031"/>
<path d="M21.6641 8.99824L21.7989 8.89111C21.7369 8.93664 21.6964 8.97146 21.6641 8.99824Z" fill="#323031"/>
<path d="M22.22 8.25679C22.2118 8.24057 22.2064 8.23246 22.1982 8.22705L22.2227 8.25679H22.22Z" fill="#323031"/>
<path d="M11.872 15.4983C11.872 15.4983 11.8557 15.5145 11.8503 15.5253C11.8041 15.5902 11.8394 15.5497 11.872 15.4983Z" fill="#323031"/>
<path d="M14.6519 12.488C14.6302 12.5282 14.6084 12.5684 14.584 12.6059C14.641 12.5577 14.6818 12.5202 14.6519 12.488Z" fill="#323031"/>
<path d="M10.4324 18.6533H10.4297L10.4378 18.6858L10.4324 18.6533Z" fill="#323031"/>
<path d="M14.4463 12.7399C14.5083 12.6997 14.5487 12.6542 14.5811 12.606C14.5353 12.6435 14.4786 12.689 14.4463 12.7399Z" fill="#323031"/>
<path d="M20.9501 4.80166L20.9093 4.78003C20.9093 4.78003 20.9039 4.78814 20.8984 4.78814L20.9501 4.80166Z" fill="#323031"/>
<path d="M20.8985 4.78857L20.8496 4.77466C20.8713 4.78579 20.8904 4.79414 20.8985 4.78857Z" fill="#323031"/>
<path d="M20.7422 4.75587L20.85 4.7748C20.815 4.76128 20.7745 4.74235 20.7422 4.75587Z" fill="#323031"/>
<path d="M21.8955 5.5998L21.9254 5.59424C21.9254 5.59424 21.9064 5.59424 21.8955 5.5998Z" fill="#323031"/>
<path d="M22.1118 5.90759C22.0714 5.82992 22.0444 5.67994 21.95 5.59155H21.9258C21.9581 5.60762 21.9905 5.6719 22.0175 5.74154C22.0417 5.81385 22.0687 5.88348 22.1118 5.91027V5.90759Z" fill="#323031"/>
<path d="M22.104 7.39131C22.1121 7.30025 22.1339 7.20919 22.1312 7.11545C22.104 7.16634 22.0687 7.22526 22.0551 7.10474C21.9681 7.4422 22.1312 7.03242 22.104 7.39131Z" fill="#323031"/>
<path d="M21.8376 8.1895C21.8892 8.05291 21.7968 8.17343 21.7859 8.15736C21.7696 8.2511 21.7669 8.2752 21.8376 8.1895Z" fill="#323031"/>
<path d="M16.5956 10.1532L16.5576 10.0938C16.4788 10.1857 16.5766 10.1127 16.5956 10.1532Z" fill="#323031"/>
<path d="M15.9619 11.2828L16.0752 11.2319L16.0698 11.1462L15.9619 11.2828Z" fill="#323031"/>
<path d="M15.0885 11.4596L15.1209 11.4141L14.9941 11.5748L15.0885 11.4596Z" fill="#323031"/>
<path d="M9.72559 19.8995L9.81796 19.8941C9.82068 19.8157 9.73374 19.7778 9.72559 19.8995Z" fill="#323031"/>
<path d="M6.24696 20.938C6.24157 20.871 6.16608 20.7799 6.08789 20.7505C6.14721 20.8282 6.20382 20.9112 6.24696 20.938Z" fill="#323031"/>
<path d="M9.06732 13.5245L9.02148 13.6102L9.13203 13.4683L9.06732 13.5245Z" fill="#323031"/>
</svg>
