<svg width="24" height="24" viewBox="0 0 24 24" fill="none" xmlns="http://www.w3.org/2000/svg">
<path d="M20 2H4C2.89543 2 2 2.89543 2 4V12V16C2 17.1046 2.89543 18 4 18H5V22L9.45217 18.4383C9.8068 18.1546 10.2474 18 10.7016 18H20C21.1046 18 22 17.1046 22 16V4C22 2.89543 21.1046 2 20 2Z" fill="#225E94"/>
<path fill-rule="evenodd" clip-rule="evenodd" d="M5.5 6C5.5 5.72386 5.72386 5.5 6 5.5H17C17.2761 5.5 17.5 5.72386 17.5 6C17.5 6.27614 17.2761 6.5 17 6.5H6C5.72386 6.5 5.5 6.27614 5.5 6Z" fill="white"/>
<path fill-rule="evenodd" clip-rule="evenodd" d="M5.5 9.5C5.5 9.22386 5.72386 9 6 9H17C17.2761 9 17.5 9.22386 17.5 9.5C17.5 9.77614 17.2761 10 17 10H6C5.72386 10 5.5 9.77614 5.5 9.5Z" fill="white"/>
<path fill-rule="evenodd" clip-rule="evenodd" d="M5.5 13C5.5 12.7239 5.72386 12.5 6 12.5H13C13.2761 12.5 13.5 12.7239 13.5 13C13.5 13.2761 13.2761 13.5 13 13.5H6C5.72386 13.5 5.5 13.2761 5.5 13Z" fill="white"/>
</svg>
