<svg width="24" height="24" viewBox="0 0 24 24" fill="none" xmlns="http://www.w3.org/2000/svg">
<path d="M20 2H4C2.89543 2 2 2.89543 2 4V12V16C2 17.1046 2.89543 18 4 18H5V22L9.45217 18.4383C9.8068 18.1546 10.2474 18 10.7016 18H20C21.1046 18 22 17.1046 22 16V4C22 2.89543 21.1046 2 20 2Z" fill="white"/>
<path d="M9.45217 18.4383L9.76452 18.8287L9.45217 18.4383ZM5 22H4.5V23.0403L5.31235 22.3904L5 22ZM5 18H5.5C5.5 17.7239 5.27614 17.5 5 17.5V18ZM4 2.5H20V1.5H4V2.5ZM21.5 4V16H22.5V4H21.5ZM20 17.5H10.7016V18.5H20V17.5ZM9.13982 18.0478L4.68765 21.6096L5.31235 22.3904L9.76452 18.8287L9.13982 18.0478ZM2.5 12V4H1.5V12H2.5ZM2.5 16V12H1.5V16H2.5ZM5.5 22V18H4.5V22H5.5ZM5 17.5H4V18.5H5V17.5ZM10.7016 17.5C10.1339 17.5 9.58311 17.6932 9.13982 18.0478L9.76452 18.8287C10.0305 18.6159 10.361 18.5 10.7016 18.5V17.5ZM21.5 16C21.5 16.8284 20.8284 17.5 20 17.5V18.5C21.3807 18.5 22.5 17.3807 22.5 16H21.5ZM1.5 16C1.5 17.3807 2.61929 18.5 4 18.5V17.5C3.17157 17.5 2.5 16.8284 2.5 16H1.5ZM20 2.5C20.8284 2.5 21.5 3.17157 21.5 4H22.5C22.5 2.61929 21.3807 1.5 20 1.5V2.5ZM4 1.5C2.61929 1.5 1.5 2.61929 1.5 4H2.5C2.5 3.17157 3.17157 2.5 4 2.5V1.5Z" fill="#323031"/>
<path fill-rule="evenodd" clip-rule="evenodd" d="M5.5 6C5.5 5.72386 5.72386 5.5 6 5.5H17C17.2761 5.5 17.5 5.72386 17.5 6C17.5 6.27614 17.2761 6.5 17 6.5H6C5.72386 6.5 5.5 6.27614 5.5 6Z" fill="#323031"/>
<path fill-rule="evenodd" clip-rule="evenodd" d="M5.5 9.5C5.5 9.22386 5.72386 9 6 9H17C17.2761 9 17.5 9.22386 17.5 9.5C17.5 9.77614 17.2761 10 17 10H6C5.72386 10 5.5 9.77614 5.5 9.5Z" fill="#323031"/>
<path fill-rule="evenodd" clip-rule="evenodd" d="M5.5 13C5.5 12.7239 5.72386 12.5 6 12.5H13C13.2761 12.5 13.5 12.7239 13.5 13C13.5 13.2761 13.2761 13.5 13 13.5H6C5.72386 13.5 5.5 13.2761 5.5 13Z" fill="#323031"/>
</svg>
