<svg width="24" height="24" viewBox="0 0 24 24" fill="none" xmlns="http://www.w3.org/2000/svg">
<rect x="4.5" y="2.5" width="15" height="19" rx="0.5" fill="white" stroke="#323031"/>
<path fill-rule="evenodd" clip-rule="evenodd" d="M6.5 6C6.5 5.72386 6.72386 5.5 7 5.5H17C17.2761 5.5 17.5 5.72386 17.5 6C17.5 6.27614 17.2761 6.5 17 6.5H7C6.72386 6.5 6.5 6.27614 6.5 6Z" fill="#323031"/>
<path fill-rule="evenodd" clip-rule="evenodd" d="M6.5 9C6.5 8.72386 6.72386 8.5 7 8.5H14C14.2761 8.5 14.5 8.72386 14.5 9C14.5 9.27614 14.2761 9.5 14 9.5H7C6.72386 9.5 6.5 9.27614 6.5 9Z" fill="#323031"/>
<path fill-rule="evenodd" clip-rule="evenodd" d="M6.5 12C6.5 11.7239 6.72386 11.5 7 11.5H11C11.2761 11.5 11.5 11.7239 11.5 12C11.5 12.2761 11.2761 12.5 11 12.5H7C6.72386 12.5 6.5 12.2761 6.5 12Z" fill="#323031"/>
<path d="M9 17L20 6L22 8L11 19H9V17Z" fill="white"/>
<path fill-rule="evenodd" clip-rule="evenodd" d="M19.6464 5.64645C19.8417 5.45118 20.1583 5.45118 20.3536 5.64645L22.3536 7.64645C22.5488 7.84171 22.5488 8.15829 22.3536 8.35355L11.3536 19.3536C11.2598 19.4473 11.1326 19.5 11 19.5H9C8.72386 19.5 8.5 19.2761 8.5 19V17C8.5 16.8674 8.55268 16.7402 8.64645 16.6464L19.6464 5.64645ZM9.5 17.2071V18.5H10.7929L21.2929 8L20 6.70711L9.5 17.2071Z" fill="#323031"/>
</svg>
